<svg width="59" height="59" viewBox="0 0 59 59" fill="none" xmlns="http://www.w3.org/2000/svg">
<path d="M20.8958 15.9792C20.8958 14.8493 21.1184 13.7304 21.5508 12.6865C21.9832 11.6426 22.617 10.6941 23.4159 9.8951C24.2149 9.09613 25.1634 8.46235 26.2073 8.02995C27.2512 7.59755 28.3701 7.375 29.5 7.375C30.6299 7.375 31.7488 7.59755 32.7927 8.02995C33.8366 8.46235 34.7851 9.09613 35.5841 9.8951C36.383 10.6941 37.0168 11.6426 37.4492 12.6865C37.8816 13.7304 38.1042 14.8493 38.1042 15.9792C38.1042 18.2611 37.1977 20.4496 35.5841 22.0632C33.9705 23.6768 31.782 24.5833 29.5 24.5833C27.218 24.5833 25.0295 23.6768 23.4159 22.0632C21.8024 20.4496 20.8958 18.2611 20.8958 15.9792ZM11.0625 27.0417C12.6925 27.0417 14.2557 26.3942 15.4083 25.2416C16.5608 24.089 17.2083 22.5258 17.2083 20.8958C17.2083 19.2659 16.5608 17.7026 15.4083 16.5501C14.2557 15.3975 12.6925 14.75 11.0625 14.75C9.43253 14.75 7.86932 15.3975 6.71675 16.5501C5.56418 17.7026 4.91668 19.2659 4.91668 20.8958C4.91668 22.5258 5.56418 24.089 6.71675 25.2416C7.86932 26.3942 9.43253 27.0417 11.0625 27.0417ZM54.0833 20.8958C54.0833 22.5258 53.4358 24.089 52.2833 25.2416C51.1307 26.3942 49.5675 27.0417 47.9375 27.0417C46.3075 27.0417 44.7443 26.3942 43.5917 25.2416C42.4392 24.089 41.7917 22.5258 41.7917 20.8958C41.7917 19.2659 42.4392 17.7026 43.5917 16.5501C44.7443 15.3975 46.3075 14.75 47.9375 14.75C49.5675 14.75 51.1307 15.3975 52.2833 16.5501C53.4358 17.7026 54.0833 19.2659 54.0833 20.8958ZM25.8125 29.5C22.42 29.5 19.6667 32.2533 19.6667 35.6458V41.7917C19.6667 44.3996 20.7027 46.9008 22.5468 48.7449C24.3909 50.589 26.892 51.625 29.5 51.625C32.108 51.625 34.6091 50.589 36.4532 48.7449C38.2973 46.9008 39.3333 44.3996 39.3333 41.7917V35.6458C39.3333 32.2533 36.58 29.5 33.1875 29.5H25.8125ZM14.75 35.6458C14.75 34.2249 15.0155 32.8679 15.5072 31.624L9.45476 33.2465C7.88124 33.6683 6.53955 34.6976 5.72456 36.1081C4.90957 37.5187 4.68796 39.1951 5.10843 40.769L6.06226 44.3336C6.39658 45.5811 6.97337 46.7505 7.7597 47.7751C8.54603 48.7996 9.5265 49.6593 10.6451 50.3049C11.7637 50.9504 12.9985 51.3694 14.279 51.5377C15.5595 51.706 16.8607 51.6204 18.1081 51.2857L18.1917 51.2612C15.9685 48.6065 14.7502 45.2543 14.75 41.7917V35.6458ZM44.25 41.7917C44.25 45.3956 42.9569 48.6996 40.8083 51.2661L40.887 51.2857C43.4056 51.96 46.0889 51.6065 48.3469 50.3028C50.6049 48.999 52.2527 46.852 52.9279 44.3336L53.8818 40.769C54.3022 39.1951 54.0806 37.5187 53.2656 36.1081C52.4506 34.6976 51.1089 33.6683 49.5354 33.2465L43.4978 31.624C43.9845 32.8728 44.25 34.2298 44.25 35.6458V41.7917Z" fill="#C64304"/>
</svg>
