<svg width="59" height="59" viewBox="0 0 59 59" fill="none" xmlns="http://www.w3.org/2000/svg">
<path d="M53.4688 35.0312C53.4733 32.5496 52.8484 30.1073 51.6527 27.9328C51.8063 27.7054 51.9372 27.4632 52.0454 27.2063C52.3196 26.5505 52.4175 25.8344 52.3293 25.129C52.2411 24.4237 51.97 23.7537 51.5428 23.1856C51.1155 22.6174 50.5471 22.1709 49.894 21.8904C49.2408 21.6099 48.5257 21.5052 47.8195 21.5866C48.1293 20.9622 48.3751 20.3107 48.557 19.6322L49.9103 14.6043C50.6471 12.2624 50.4961 9.73112 49.4859 7.49344C48.4757 5.25577 46.6771 3.46828 44.4333 2.47194C42.1894 1.4756 39.6573 1.34015 37.3199 2.09143C34.9826 2.84271 33.0036 4.42813 31.7604 6.54527C30.622 4.97598 28.9613 3.86408 27.0767 3.40931C25.192 2.95453 23.207 3.18671 21.4782 4.06411C19.7494 4.94152 18.3901 6.40665 17.6445 8.19628C16.899 9.98592 16.816 11.9828 17.4105 13.8281H13.1865C5.88894 13.8281 3.02375 23.2921 9.09522 27.3391L12.6721 29.7249L10.1775 39.5115C9.86565 40.6925 9.83154 41.9296 10.0778 43.126C10.3242 44.3223 10.8442 45.4454 11.5972 46.4071C12.5811 47.6754 13.9237 48.6185 15.4506 49.1138V55.3125C15.4506 55.8014 15.6449 56.2704 15.9906 56.6162C16.3364 56.962 16.8054 57.1562 17.2944 57.1562H51.625C52.114 57.1562 52.583 56.962 52.9287 56.6162C53.2745 56.2704 53.4688 55.8014 53.4688 55.3125V35.0312ZM27.6563 49.5046H32.6713C33.7393 49.5048 34.7647 49.0857 35.5267 48.3374C36.2888 47.5891 36.7266 46.5715 36.7459 45.5037C36.7459 44.9574 36.638 44.4164 36.4284 43.9119C36.2188 43.4074 35.9116 42.9492 35.5244 42.5638C35.1372 42.1783 34.6777 41.8731 34.1723 41.6657C33.6668 41.4584 33.1254 41.3528 32.5791 41.3553H27.6563V36.2684C27.6563 35.9649 27.5814 35.6661 27.4383 35.3985C27.2952 35.1309 27.0882 34.9028 26.8358 34.7344L11.1399 24.2711C8.10513 22.2466 9.53772 17.5156 13.1865 17.5156H18.4191L18.8616 19.1565C19.2834 20.7263 20.141 22.1446 21.3352 23.2475C22.5294 24.3503 24.0113 25.0925 25.6097 25.3884C26.649 25.5703 27.7146 25.5358 28.7399 25.287C29.7653 25.0383 30.7283 24.5807 31.5687 23.9429C31.6707 23.9601 31.7752 23.9687 31.8821 23.9687H38.7188C39.4255 23.9699 40.1139 24.0339 40.7838 24.1605L36.1559 25.9415C35.2715 26.2851 34.5347 26.9266 34.0726 27.7553C33.6105 28.584 33.4521 29.548 33.6247 30.481C33.7973 31.414 34.2901 32.2575 35.0181 32.866C35.7461 33.4745 36.6637 33.8099 37.6125 33.8143C38.1177 33.8143 38.6173 33.7203 39.0875 33.5378L48.5257 29.9056C49.3277 31.4359 49.7813 33.1819 49.7813 35.0312V53.4687H27.6563V49.5046ZM34.303 20.2812C34.373 20.0993 34.4376 19.9149 34.4966 19.7281C34.9796 18.1774 35.0122 16.5213 34.5906 14.9528L33.7646 11.9641L34.2071 10.3157L34.2182 10.2715C34.3977 9.43632 34.7452 8.64634 35.2393 7.94951C35.7335 7.25268 36.3641 6.66353 37.0929 6.21781C37.8216 5.77209 38.6334 5.4791 39.4788 5.35662C40.3242 5.23414 41.1857 5.28472 42.011 5.5053C42.8363 5.72588 43.6082 6.11186 44.2798 6.6398C44.9514 7.16774 45.5087 7.82664 45.9179 8.57651C46.3272 9.32639 46.5797 10.1516 46.6604 11.002C46.741 11.8525 46.6479 12.7105 46.3869 13.5239L46.374 13.5644L44.9967 18.6808C44.7531 19.5841 44.3264 20.4275 43.743 21.1588C42.1319 20.5768 40.4317 20.2798 38.7188 20.2812H34.303Z" fill="#C64304"/>
</svg>
