<svg width="59" height="59" viewBox="0 0 59 59" fill="none" xmlns="http://www.w3.org/2000/svg">
<path d="M39.7697 51.1641C36.5615 52.6896 33.0524 53.4771 29.5 53.4687C16.284 53.4687 5.53124 42.716 5.53124 29.5C5.53124 23.8305 7.48008 18.4762 11.0625 14.1821V18.4375H14.75V7.375H3.68749V11.0625H8.92743C4.35599 16.1139 1.83052 22.6872 1.84374 29.5C1.84374 44.7497 14.2503 57.1562 29.5 57.1562C33.6009 57.1648 37.6518 56.2551 41.3553 54.4939L39.7697 51.1641Z" fill="#C64304"/>
<path d="M38.7188 16.5938C32.8925 16.5938 28.1153 21.1238 27.6968 26.845C25.6699 24.9955 23.0252 23.9697 20.2812 23.9688H12.9062V31.3438C12.9062 37.4447 17.8696 42.4062 23.9688 42.4062H27.6562V49.7812H31.3438V35.0312H35.0312C41.1304 35.0312 46.0938 30.0697 46.0938 23.9688V16.5938H38.7188ZM23.9688 38.7188C19.9014 38.7188 16.5938 35.4111 16.5938 31.3438V27.6562H20.2812C24.3486 27.6562 27.6562 30.9639 27.6562 35.0312V36.1117L23.4285 31.884L20.8215 34.491L25.0492 38.7188H23.9688ZM42.4062 23.9688C42.4062 28.0361 39.0986 31.3438 35.0312 31.3438H33.9508L38.1785 27.116L35.5715 24.509L31.3438 28.7367V27.6562C31.3438 23.5889 34.6514 20.2812 38.7188 20.2812H42.4062V23.9688Z" fill="#C64304"/>
<path d="M57.1563 29.5001C57.1563 14.2504 44.7497 1.84381 29.5 1.84381C25.3991 1.83527 21.3482 2.74498 17.6447 4.50618L19.2303 7.836C22.4385 6.31048 25.9476 5.52297 29.5 5.53131C42.716 5.53131 53.4688 16.2841 53.4688 29.5001C53.4688 35.1696 51.5199 40.5238 47.9375 44.8179V40.5626H44.25V51.6251H55.3125V47.9376H50.0726C54.644 42.8862 57.1695 36.3129 57.1563 29.5001Z" fill="#C64304"/>
</svg>
