<svg width="59" height="58" viewBox="0 0 59 58" fill="none" xmlns="http://www.w3.org/2000/svg">
<path fill-rule="evenodd" clip-rule="evenodd" d="M8.6286 3.71193C9.01433 3.30514 9.22601 2.76383 9.21856 2.20329C9.21111 1.64274 8.98512 1.10725 8.58872 0.710852C8.19232 0.314452 7.65683 0.0884644 7.09629 0.0810163C6.53574 0.0735682 5.99443 0.285248 5.58764 0.670976L0.670976 5.58764C0.285248 5.99443 0.0735682 6.53574 0.0810163 7.09629C0.0884644 7.65683 0.314452 8.19232 0.710852 8.58872C1.10725 8.98512 1.64274 9.21111 2.20329 9.21856C2.76383 9.22601 3.30514 9.01433 3.71193 8.6286L8.6286 3.71193ZM20.9203 3.71193C21.1287 3.51426 21.2955 3.27683 21.4107 3.01365C21.5259 2.75047 21.5872 2.46688 21.5911 2.17962C21.5949 1.89236 21.5411 1.60724 21.4329 1.34109C21.3248 1.07495 21.1644 0.83317 20.9612 0.630026C20.7581 0.426881 20.5163 0.266489 20.2501 0.158314C19.984 0.0501386 19.6989 -0.00362708 19.4116 0.000189876C19.1244 0.00400683 18.8408 0.0653291 18.5776 0.180537C18.3144 0.295746 18.077 0.462506 17.8793 0.670976L0.670976 17.8793C0.462506 18.077 0.295746 18.3144 0.180537 18.5776C0.0653291 18.8408 0.00400683 19.1244 0.000189876 19.4116C-0.00362708 19.6989 0.0501386 19.984 0.158314 20.2501C0.266489 20.5163 0.426881 20.7581 0.630026 20.9612C0.83317 21.1644 1.07495 21.3248 1.34109 21.4329C1.60724 21.5411 1.89236 21.5949 2.17962 21.5911C2.46688 21.5872 2.75047 21.5259 3.01365 21.4107C3.27683 21.2955 3.51426 21.1287 3.71193 20.9203L20.9203 3.71193ZM33.2119 3.71193C33.4204 3.51426 33.5872 3.27683 33.7024 3.01365C33.8176 2.75047 33.8789 2.46688 33.8827 2.17962C33.8865 1.89236 33.8328 1.60724 33.7246 1.34109C33.6164 1.07495 33.456 0.83317 33.2529 0.630026C33.0497 0.426881 32.808 0.266489 32.5418 0.158314C32.2757 0.0501386 31.9906 -0.00362708 31.7033 0.000189876C31.416 0.00400683 31.1324 0.0653291 30.8693 0.180537C30.6061 0.295746 30.3687 0.462506 30.171 0.670976L26.4835 4.35848C26.275 4.55615 26.1082 4.79358 25.993 5.05676C25.8778 5.31994 25.8165 5.60353 25.8127 5.89079C25.8089 6.17805 25.8626 6.46317 25.9708 6.72932C26.079 6.99546 26.2394 7.23724 26.4425 7.44038C26.6457 7.64353 26.8874 7.80392 27.1536 7.9121C27.4197 8.02027 27.7049 8.07404 27.9921 8.07022C28.2794 8.0664 28.563 8.00508 28.8262 7.88987C29.0893 7.77466 29.3268 7.6079 29.5244 7.39943L33.2119 3.71193ZM45.5036 3.71193C45.7121 3.51426 45.8788 3.27683 45.994 3.01365C46.1092 2.75047 46.1706 2.46688 46.1744 2.17962C46.1782 1.89236 46.1244 1.60724 46.0163 1.34109C45.9081 1.07495 45.7477 0.83317 45.5446 0.630026C45.3414 0.426881 45.0996 0.266489 44.8335 0.158314C44.5673 0.0501386 44.2822 -0.00362708 43.995 0.000189876C43.7077 0.00400683 43.4241 0.0653291 43.1609 0.180537C42.8978 0.295746 42.6603 0.462506 42.4626 0.670976L37.546 5.58764C37.3375 5.78532 37.1707 6.02275 37.0555 6.28593C36.9403 6.5491 36.879 6.83269 36.8752 7.11996C36.8714 7.40722 36.9251 7.69234 37.0333 7.95848C37.1415 8.22463 37.3019 8.46641 37.505 8.66955C37.7082 8.87269 37.9499 9.03309 38.2161 9.14126C38.4822 9.24944 38.7674 9.3032 39.0546 9.29939C39.3419 9.29557 39.6255 9.23425 39.8886 9.11904C40.1518 9.00383 40.3893 8.83707 40.5869 8.6286L45.5036 3.71193ZM57.7953 3.71193C58.0037 3.51426 58.1705 3.27683 58.2857 3.01365C58.4009 2.75047 58.4622 2.46688 58.466 2.17962C58.4699 1.89236 58.4161 1.60724 58.3079 1.34109C58.1998 1.07495 58.0394 0.83317 57.8362 0.630026C57.6331 0.426881 57.3913 0.266489 57.1251 0.158314C56.859 0.0501386 56.5739 -0.00362708 56.2866 0.000189876C55.9994 0.00400683 55.7158 0.0653291 55.4526 0.180537C55.1894 0.295746 54.952 0.462506 54.7543 0.670976L43.6918 11.7335C43.4833 11.9312 43.3166 12.1686 43.2014 12.4318C43.0862 12.6949 43.0248 12.9785 43.021 13.2658C43.0172 13.5531 43.071 13.8382 43.1791 14.1043C43.2873 14.3705 43.4477 14.6122 43.6509 14.8154C43.854 15.0185 44.0958 15.1789 44.3619 15.2871C44.6281 15.3953 44.9132 15.449 45.2005 15.4452C45.4877 15.4414 45.7713 15.3801 46.0345 15.2649C46.2977 15.1497 46.5351 14.9829 46.7328 14.7744L57.7953 3.71193ZM57.7953 16.0036C58.0037 15.8059 58.1705 15.5685 58.2857 15.3053C58.4009 15.0421 58.4622 14.7586 58.466 14.4713C58.4699 14.184 58.4161 13.8989 58.3079 13.6328C58.1998 13.3666 58.0394 13.1248 57.8362 12.9217C57.6331 12.7185 57.3913 12.5582 57.1251 12.45C56.859 12.3418 56.5739 12.288 56.2866 12.2919C55.9994 12.2957 55.7158 12.357 55.4526 12.4722C55.1894 12.5874 54.952 12.7542 54.7543 12.9626L47.3793 20.3376C47.1708 20.5353 47.0041 20.7727 46.8889 21.0359C46.7737 21.2991 46.7123 21.5827 46.7085 21.87C46.7047 22.1572 46.7585 22.4423 46.8666 22.7085C46.9748 22.9746 47.1352 23.2164 47.3384 23.4195C47.5415 23.6227 47.7833 23.7831 48.0494 23.8913C48.3156 23.9994 48.6007 24.0532 48.888 24.0494C49.1752 24.0456 49.4588 23.9842 49.722 23.869C49.9852 23.7538 50.2226 23.5871 50.4203 23.3786L57.7953 16.0036ZM9.85777 27.0661C10.0662 26.8684 10.233 26.631 10.3482 26.3678C10.4634 26.1046 10.5247 25.8211 10.5286 25.5338C10.5324 25.2465 10.4786 24.9614 10.3704 24.6953C10.2623 24.4291 10.1019 24.1873 9.89872 23.9842C9.69557 23.781 9.45379 23.6207 9.18765 23.5125C8.9215 23.4043 8.63639 23.3505 8.34912 23.3544C8.06186 23.3582 7.77827 23.4195 7.51509 23.5347C7.25192 23.6499 7.01448 23.8167 6.81681 24.0251L0.670976 30.171C0.462506 30.3687 0.295746 30.6061 0.180537 30.8693C0.0653291 31.1324 0.00400683 31.416 0.000189876 31.7033C-0.00362708 31.9906 0.0501386 32.2757 0.158314 32.5418C0.266489 32.808 0.426881 33.0497 0.630026 33.2529C0.83317 33.456 1.07495 33.6164 1.34109 33.7246C1.60724 33.8328 1.89236 33.8865 2.17962 33.8827C2.46688 33.8789 2.75047 33.8176 3.01365 33.7024C3.27683 33.5872 3.51426 33.4204 3.71193 33.2119L9.85777 27.0661ZM57.7953 28.2953C58.0037 28.0976 58.1705 27.8602 58.2857 27.597C58.4009 27.3338 58.4622 27.0502 58.466 26.763C58.4699 26.4757 58.4161 26.1906 58.3079 25.9244C58.1998 25.6583 58.0394 25.4165 57.8362 25.2134C57.6331 25.0102 57.3913 24.8498 57.1251 24.7416C56.859 24.6335 56.5739 24.5797 56.2866 24.5835C55.9994 24.5873 55.7158 24.6487 55.4526 24.7639C55.1894 24.8791 54.952 25.0458 54.7543 25.2543L44.921 35.0876C44.7125 35.2853 44.5457 35.5227 44.4305 35.7859C44.3153 36.0491 44.254 36.3327 44.2502 36.62C44.2464 36.9072 44.3001 37.1923 44.4083 37.4585C44.5165 37.7246 44.6769 37.9664 44.88 38.1695C45.0832 38.3727 45.3249 38.5331 45.5911 38.6413C45.8572 38.7494 46.1424 38.8032 46.4296 38.7994C46.7169 38.7956 47.0005 38.7342 47.2636 38.619C47.5268 38.5038 47.7643 38.3371 47.9619 38.1286L57.7953 28.2953ZM12.3161 36.8994C12.5246 36.7018 12.6913 36.4643 12.8065 36.2011C12.9217 35.938 12.9831 35.6544 12.9869 35.3671C12.9907 35.0799 12.9369 34.7947 12.8288 34.5286C12.7206 34.2624 12.5602 34.0207 12.3571 33.8175C12.1539 33.6144 11.9121 33.454 11.646 33.3458C11.3798 33.2376 11.0947 33.1839 10.8075 33.1877C10.5202 33.1915 10.2366 33.2528 9.97343 33.368C9.71025 33.4832 9.47282 33.65 9.27514 33.8585L0.670976 42.4626C0.462506 42.6603 0.295746 42.8978 0.180537 43.1609C0.0653291 43.4241 0.00400683 43.7077 0.000189876 43.995C-0.00362708 44.2822 0.0501386 44.5673 0.158314 44.8335C0.266489 45.0996 0.426881 45.3414 0.630026 45.5446C0.83317 45.7477 1.07495 45.9081 1.34109 46.0163C1.60724 46.1244 1.89236 46.1782 2.17962 46.1744C2.46688 46.1706 2.75047 46.1092 3.01365 45.994C3.27683 45.8788 3.51426 45.7121 3.71193 45.5036L12.3161 36.8994ZM49.8376 42.4626C49.6292 42.6603 49.4624 42.8978 49.3472 43.1609C49.232 43.4241 49.1707 43.7077 49.1669 43.995C49.163 44.2822 49.2168 44.5673 49.325 44.8335C49.4332 45.0996 49.5935 45.3414 49.7967 45.5446C49.9998 45.7477 50.2416 45.9081 50.5078 46.0163C50.7739 46.1244 51.059 46.1782 51.3463 46.1744C51.6335 46.1706 51.9171 46.1092 52.1803 45.994C52.4435 45.8788 52.6809 45.7121 52.8786 45.5036L57.7953 40.5869C58.0037 40.3893 58.1705 40.1518 58.2857 39.8886C58.4009 39.6255 58.4622 39.3419 58.466 39.0546C58.4699 38.7674 58.4161 38.4822 58.3079 38.2161C58.1998 37.9499 58.0394 37.7082 57.8362 37.505C57.6331 37.3019 57.3913 37.1415 57.1251 37.0333C56.859 36.9251 56.5739 36.8714 56.2866 36.8752C55.9994 36.879 55.7158 36.9403 55.4526 37.0555C55.1894 37.1707 54.952 37.3375 54.7543 37.546L49.8376 42.4626ZM14.2484 25.5456C14.2484 17.3999 20.8514 10.7956 28.9984 10.7956C37.1453 10.7956 43.7483 17.3999 43.7483 25.5456C43.7483 30.4131 41.3884 34.73 37.7562 37.4145C43.1891 40.0977 47.1962 45.2012 48.3368 51.3114C48.5863 52.6524 48.3307 53.9541 47.5932 54.9805C46.8557 56.0093 45.7003 56.6644 44.3396 56.8414C41.6895 57.1844 37.0654 57.504 28.9984 57.504C20.9313 57.504 16.306 57.1844 13.6559 56.8414C12.2952 56.6657 11.141 56.0093 10.4023 54.9805C9.66479 53.9541 9.40912 52.6524 9.65987 51.3114C10.7993 45.2025 14.8064 40.0977 20.2393 37.4145C18.3801 36.0444 16.8693 34.2563 15.8288 32.1945C14.7883 30.1327 14.2473 27.8551 14.2496 25.5456" fill="#C64304"/>
</svg>
